<svg width="200" height="78" viewBox="0 0 332 78" fill="none" xmlns="http://www.w3.org/2000/svg">
<path d="M13.8457 66.35C13.8457 68.1293 15.9946 69.0228 17.2561 67.7681L45.4288 39.7466C46.694 38.4883 45.8028 36.3286 44.0184 36.3286H15.8457C14.7411 36.3286 13.8457 37.224 13.8457 38.3286V66.35Z" fill="url(#paint0_linear_531_8)"/>
<path d="M35.9326 9.37163C35.9326 7.59242 33.7837 6.69891 32.5222 7.95362L4.34953 35.9751C3.08437 37.2334 3.97552 39.3931 5.75993 39.3931H33.9326C35.0372 39.3931 35.9326 38.4976 35.9326 37.3931V9.37163Z" fill="white"/>
<path d="M98.4904 34.1896C100.282 35.4269 101.712 37.0269 102.778 38.9896C103.845 40.9096 104.378 43.0429 104.378 45.3896C104.378 47.2669 104.016 49.0376 103.29 50.7016C102.565 52.3229 101.584 53.7522 100.346 54.9896C99.1091 56.1842 97.6584 57.1442 95.9944 57.8696C94.3731 58.5522 92.6237 58.8936 90.7464 58.8936H70.1384V13.5176H90.1064C91.8131 13.5176 93.4131 13.8589 94.9064 14.5416C96.3997 15.1816 97.7011 16.0562 98.8104 17.1656C99.9624 18.2749 100.858 19.5762 101.498 21.0696C102.138 22.5629 102.458 24.1629 102.458 25.8696C102.458 27.7042 102.096 29.3256 101.37 30.7336C100.688 32.0989 99.7277 33.2509 98.4904 34.1896ZM79.8664 30.5416H90.1064C91.2584 30.5416 92.2397 30.1362 93.0504 29.3256C93.8611 28.5149 94.2664 27.5336 94.2664 26.3816C94.2664 25.2296 93.8611 24.2696 93.0504 23.5016C92.2397 22.7336 91.2584 22.3496 90.1064 22.3496H79.8664V30.5416ZM90.7464 50.1256C92.0264 50.1256 93.1144 49.5922 94.0104 48.5256C94.9064 47.4162 95.3544 46.1362 95.3544 44.6856C95.3544 43.1922 94.9064 41.9336 94.0104 40.9096C93.1144 39.8856 92.0264 39.3736 90.7464 39.3736H79.8664V50.1256H90.7464ZM119.171 58.8936H110.339V27.1496H119.171V58.8936ZM114.755 22.7976C113.39 22.7976 112.238 22.3282 111.299 21.3896C110.361 20.4509 109.891 19.2989 109.891 17.9336C109.891 16.5682 110.361 15.4162 111.299 14.4776C112.238 13.4962 113.39 13.0056 114.755 13.0056C116.121 13.0056 117.273 13.4962 118.211 14.4776C119.15 15.4162 119.619 16.5682 119.619 17.9336C119.619 19.2989 119.15 20.4509 118.211 21.3896C117.273 22.3282 116.121 22.7976 114.755 22.7976ZM141.375 26.2536C143.636 26.2536 145.77 26.7016 147.775 27.5976C149.78 28.4509 151.53 29.6456 153.023 31.1816C154.516 32.6749 155.69 34.4456 156.543 36.4936C157.439 38.4989 157.887 40.6536 157.887 42.9576C157.887 45.2616 157.439 47.4376 156.543 49.4856C155.69 51.4909 154.516 53.2616 153.023 54.7976C151.53 56.2909 149.78 57.4856 147.775 58.3816C145.77 59.2349 143.636 59.6616 141.375 59.6616C139.071 59.6616 136.916 59.2349 134.911 58.3816C132.906 57.4856 131.156 56.2909 129.663 54.7976C128.17 53.2616 126.975 51.4909 126.079 49.4856C125.226 47.4376 124.799 45.2616 124.799 42.9576C124.799 40.6536 125.226 38.4989 126.079 36.4936C126.975 34.4456 128.17 32.6749 129.663 31.1816C131.156 29.6456 132.906 28.4509 134.911 27.5976C136.916 26.7016 139.071 26.2536 141.375 26.2536ZM141.375 51.9176C142.442 51.9176 143.423 51.7042 144.319 51.2776C145.258 50.8509 146.068 50.2749 146.751 49.5496C147.476 48.7816 148.031 47.8856 148.415 46.8616C148.842 45.7949 149.055 44.6216 149.055 43.3416C149.055 42.0616 148.842 40.8669 148.415 39.7576C148.031 38.6482 147.476 37.6882 146.751 36.8776C146.068 36.0242 145.258 35.3629 144.319 34.8936C143.423 34.3816 142.442 34.1256 141.375 34.1256C140.308 34.1256 139.306 34.3816 138.367 34.8936C137.428 35.3629 136.596 36.0242 135.871 36.8776C135.188 37.6882 134.634 38.6482 134.207 39.7576C133.823 40.8669 133.631 42.0616 133.631 43.3416C133.631 44.6216 133.823 45.7949 134.207 46.8616C134.634 47.8856 135.188 48.7816 135.871 49.5496C136.596 50.2749 137.428 50.8509 138.367 51.2776C139.306 51.7042 140.308 51.9176 141.375 51.9176ZM191.053 34.1896C192.845 35.4269 194.274 37.0269 195.341 38.9896C196.408 40.9096 196.941 43.0429 196.941 45.3896C196.941 47.2669 196.578 49.0376 195.853 50.7016C195.128 52.3229 194.146 53.7522 192.909 54.9896C191.672 56.1842 190.221 57.1442 188.557 57.8696C186.936 58.5522 185.186 58.8936 183.309 58.8936H162.701V13.5176H182.669C184.376 13.5176 185.976 13.8589 187.469 14.5416C188.962 15.1816 190.264 16.0562 191.373 17.1656C192.525 18.2749 193.421 19.5762 194.061 21.0696C194.701 22.5629 195.021 24.1629 195.021 25.8696C195.021 27.7042 194.658 29.3256 193.933 30.7336C193.25 32.0989 192.29 33.2509 191.053 34.1896ZM172.429 30.5416H182.669C183.821 30.5416 184.802 30.1362 185.613 29.3256C186.424 28.5149 186.829 27.5336 186.829 26.3816C186.829 25.2296 186.424 24.2696 185.613 23.5016C184.802 22.7336 183.821 22.3496 182.669 22.3496H172.429V30.5416ZM183.309 50.1256C184.589 50.1256 185.677 49.5922 186.573 48.5256C187.469 47.4162 187.917 46.1362 187.917 44.6856C187.917 43.1922 187.469 41.9336 186.573 40.9096C185.677 39.8856 184.589 39.3736 183.309 39.3736H172.429V50.1256H183.309ZM225.396 27.1496H235.06L215.028 71.5656H205.364L213.236 54.0936L199.796 27.1496H209.652L217.908 43.7256L225.396 27.1496ZM250.408 47.5016C250.408 48.9949 250.856 50.1469 251.752 50.9576C252.691 51.7682 253.907 52.1736 255.4 52.1736C256.595 52.1736 257.79 51.9389 258.984 51.4696V58.8936C257.918 59.2349 256.787 59.5122 255.592 59.7256C254.398 59.9816 253.203 60.1096 252.008 60.1096C250.643 60.1096 249.342 59.9389 248.104 59.5976C246.867 59.2562 245.758 58.6802 244.776 57.8696C243.795 57.0162 243.006 55.9069 242.408 54.5416C241.854 53.1336 241.576 51.4056 241.576 49.3576V35.0216H237.032V29.0696L241.576 27.1496V20.0456H250.408V27.1496H258.984V35.0216H250.408V47.5016ZM278.876 26.2536C281.266 26.2536 283.442 26.7442 285.404 27.7256C287.367 28.6642 289.052 29.9229 290.46 31.5016C291.868 33.0376 292.956 34.8296 293.724 36.8776C294.492 38.8829 294.876 40.9522 294.876 43.0856C294.876 44.3656 294.706 45.7309 294.364 47.1816H271.708C272.562 48.6322 273.778 49.8696 275.356 50.8936C276.935 51.8749 278.642 52.3656 280.476 52.3656C282.311 52.3656 283.911 52.2162 285.276 51.9176C286.684 51.6189 288.007 51.2349 289.244 50.7656L292.188 56.2056C290.61 57.3149 288.796 58.1682 286.748 58.7656C284.743 59.3629 282.588 59.6616 280.284 59.6616C277.767 59.6616 275.42 59.2349 273.244 58.3816C271.068 57.4856 269.17 56.2909 267.548 54.7976C265.927 53.3042 264.647 51.5336 263.708 49.4856C262.77 47.4376 262.3 45.2616 262.3 42.9576C262.3 40.6962 262.727 38.5629 263.58 36.5576C264.434 34.5096 265.607 32.7389 267.1 31.2456C268.636 29.7096 270.407 28.4936 272.412 27.5976C274.418 26.7016 276.572 26.2536 278.876 26.2536ZM286.108 40.3336C285.596 38.4989 284.679 37.0056 283.356 35.8536C282.034 34.7016 280.54 34.1256 278.876 34.1256C277.17 34.1256 275.612 34.7016 274.204 35.8536C272.839 37.0056 271.9 38.4989 271.388 40.3336H286.108ZM312.715 51.0856H327.371V58.8936H301.131V51.4696L314.187 35.0216H302.347V27.1496H326.987V33.0376L312.715 51.0856Z" fill="white"/>
<defs>
<linearGradient id="paint0_linear_531_8" x1="31.3555" y1="36.3286" x2="31.3555" y2="71.1602" gradientUnits="userSpaceOnUse">
<stop stop-color="#999999"/>
<stop offset="0.315" stop-color="white"/>
</linearGradient>
</defs>
</svg>
