<svg width="313" height="85" viewBox="0 0 313 85" fill="none" xmlns="http://www.w3.org/2000/svg">
<path d="M37.8209 34.0966C33.5139 14.9603 24.537 9.86593 22.247 6.26477C21.3028 4.67837 20.4663 3.02937 19.7433 1.3291C19.6223 3.0291 19.4001 4.1001 17.9653 5.38927C15.0846 7.9761 2.84999 18.0174 1.82036 39.7604C0.861054 60.0329 16.6178 72.5336 18.6996 73.8256C20.3003 74.6189 22.2499 73.8426 23.2007 73.1144C30.7964 67.8643 41.1743 53.8676 37.8294 34.0966" fill="white"/>
<path d="M20.3959 63.0303C19.9993 68.0481 19.7151 70.9636 18.708 73.8309C18.708 73.8309 19.3691 78.6079 19.8333 83.6683H21.4762C21.8681 80.1048 22.4664 76.5675 23.2682 73.0744C21.1414 72.0204 20.4775 67.4333 20.3959 63.0303Z" fill="white"/>
<path d="M23.265 73.0776C21.1157 72.0774 20.494 67.3939 20.3984 63.0306C20.9299 55.833 21.0848 48.6121 20.8626 41.3981C20.75 37.6128 20.916 6.33843 19.937 1.75977C20.6067 3.31051 21.3783 4.81457 22.2467 6.26193C24.5366 9.86593 33.5164 14.9603 37.8206 34.0966C41.1739 53.8336 30.8522 67.7934 23.265 73.0776Z" fill="white"/>
<path d="M306.555 66.1588C305.635 66.1587 304.735 65.8846 303.969 65.3709C303.203 64.8573 302.605 64.127 302.25 63.2718C301.894 62.4167 301.798 61.475 301.973 60.565C302.148 59.655 302.586 58.8174 303.233 58.1575C303.879 57.4976 304.704 57.0449 305.605 56.8562C306.506 56.6676 307.443 56.7514 308.296 57.0972C309.15 57.443 309.884 58.0353 310.404 58.7997C310.925 59.5641 311.209 60.4664 311.222 61.3931C311.239 62.0181 311.13 62.6399 310.902 63.2215C310.674 63.803 310.332 64.3322 309.896 64.7772C309.46 65.2223 308.94 65.5741 308.366 65.8115C307.791 66.0489 307.175 66.1671 306.555 66.1588ZM306.555 57.1828C305.714 57.1772 304.89 57.4231 304.188 57.8893C303.486 58.3554 302.938 59.021 302.611 59.8016C302.285 60.5822 302.196 61.4427 302.356 62.2741C302.516 63.1056 302.917 63.8706 303.509 64.4722C304.101 65.0738 304.857 65.485 305.681 65.6537C306.505 65.8223 307.36 65.7409 308.138 65.4197C308.916 65.0985 309.582 64.5519 310.051 63.8492C310.521 63.1465 310.772 62.3194 310.775 61.4725C310.786 60.9095 310.684 60.35 310.477 59.8272C310.269 59.3043 309.959 58.8288 309.566 58.4288C309.172 58.0288 308.703 57.7124 308.186 57.4983C307.668 57.2843 307.114 57.177 306.555 57.1828ZM307.68 64.4305L306.476 61.8153H305.506V64.4305H304.799V58.4805H306.541C307.838 58.4805 308.378 59.0471 308.378 60.1436C308.378 61.0163 307.97 61.5603 307.21 61.7275L308.454 64.422L307.68 64.4305ZM305.534 61.2005H306.555C307.382 61.2005 307.697 60.9171 307.697 60.1578C307.697 59.3985 307.396 59.1406 306.465 59.1406H305.534V61.2005Z" fill="#21313C"/>
<path d="M237.094 61.8742C238.357 62.8913 240.881 63.3107 243.106 63.3107C245.99 63.3107 248.817 62.7723 251.58 60.2592C254.393 57.6837 256.328 53.7425 256.328 47.4497C256.328 41.4033 254.044 36.496 249.357 33.623C246.713 31.9485 243.286 31.2883 239.379 31.2883C238.253 31.2883 237.094 31.3478 236.436 31.6482C236.166 31.8627 235.975 32.1619 235.893 32.4982C235.775 33.5748 235.775 41.7745 235.775 46.6223C235.775 51.592 235.775 58.5223 235.893 59.3723C235.955 60.092 236.315 61.3557 237.094 61.8855M225.099 28.5967C226.12 28.5967 230.002 28.7752 231.808 28.7752C235.184 28.7752 237.516 28.5967 243.826 28.5967C249.115 28.5967 253.566 30.0332 256.747 32.7843C260.596 36.139 262.655 40.8055 262.655 46.492C262.655 54.5727 258.998 59.242 255.321 61.8742C251.664 64.6282 246.907 66.1837 240.13 66.1837C236.523 66.1837 230.331 66.0647 225.164 66.0052H225.057C224.815 65.5263 225.498 63.6592 225.92 63.611C227.327 63.4523 227.698 63.3957 228.345 63.1265C229.437 62.676 229.693 62.115 229.814 60.1402C229.994 56.4285 229.935 52 229.935 46.9708C229.935 43.381 229.994 36.377 229.876 34.1613C229.693 32.3083 228.916 31.8295 227.344 31.4697C226.229 31.2311 225.102 31.0514 223.968 30.9313C223.85 30.5715 224.772 28.948 225.073 28.5967" fill="white"/>
<path d="M277.551 31.6346C277.312 31.6941 277.011 32.2948 277.011 32.5923C276.949 34.7485 276.89 40.3726 276.89 44.2628C276.905 44.3372 276.942 44.4053 276.995 44.4588C277.049 44.5122 277.117 44.5485 277.191 44.5631C277.97 44.6226 279.894 44.685 281.517 44.685C283.802 44.685 285.124 44.3846 285.844 44.0248C287.768 43.0671 288.657 40.9705 288.657 38.6981C288.657 33.4905 285.051 31.5156 279.703 31.5156C278.98 31.5064 278.257 31.5462 277.54 31.6346M291.184 55.5763C291.184 50.3091 287.335 47.3171 280.302 47.3171C280.004 47.3171 277.77 47.2576 277.238 47.3766C277.058 47.4361 276.878 47.5551 276.878 47.677C276.878 51.4481 276.817 57.4916 276.999 59.8858C277.12 60.903 277.843 62.3395 278.741 62.7588C279.703 63.2971 281.866 63.4161 283.368 63.4161C287.515 63.4161 291.184 61.0843 291.184 55.5763ZM266.692 28.7021C267.235 28.7021 268.833 28.8806 272.92 28.8806C276.766 28.8806 279.891 28.7616 283.61 28.7616C288.238 28.7616 294.607 30.439 294.607 37.3806C294.607 40.7806 292.205 43.546 289.079 44.8635C288.899 44.923 288.899 45.042 289.079 45.1015C293.527 46.2348 297.432 48.9916 297.432 54.2588C297.432 59.407 294.247 62.6398 289.619 64.6741C286.806 65.9321 283.309 66.3486 279.773 66.3486C277.07 66.3486 269.823 66.0653 265.794 66.1106C265.372 65.9321 266.18 64.014 266.54 63.7165C267.463 63.6879 268.379 63.5432 269.266 63.2858C270.706 62.9288 270.878 62.4613 271.058 60.3051C271.179 58.4493 271.179 51.8051 271.179 47.0763C271.179 40.6106 271.241 36.2445 271.179 34.0883C271.12 32.4138 270.518 31.8726 269.376 31.5751C268.475 31.3938 266.973 31.2153 265.772 31.0368C265.471 30.7365 266.396 28.9401 266.695 28.7021" fill="white"/>
<path d="M51.13 66.1582C50.9753 65.7751 50.9126 65.3606 50.9472 64.9484C50.9337 64.6675 50.9969 64.3882 51.13 64.1409C51.9074 64.028 52.6776 63.87 53.4369 63.6677C54.5003 63.4014 54.8997 62.8177 54.9616 61.4521C55.136 58.2249 55.1473 52.1701 55.0854 47.9144V47.7897C55.0854 47.3307 55.0854 46.7074 54.5228 46.2682C53.5339 45.6434 52.4602 45.1662 51.3354 44.8516C50.8318 44.7014 50.5533 44.4351 50.5674 44.1234C50.5815 43.8117 50.8994 43.4434 51.5548 43.3131C53.2962 43.1346 57.8592 42.0381 59.6512 41.2051C59.8358 41.4473 59.9213 41.7514 59.8904 42.0551C59.8904 42.2421 59.8622 42.4404 59.8425 42.6444C59.7919 43.2451 59.7356 43.9279 59.7356 44.6079C59.7467 44.6905 59.7804 44.7684 59.8329 44.8327C59.8855 44.8971 59.9549 44.9454 60.0333 44.9722C60.1116 44.999 60.1958 45.0032 60.2765 44.9844C60.3571 44.9656 60.4309 44.9245 60.4896 44.8657C63.902 42.1712 66.9599 41.2107 68.5269 41.2107C71.1066 41.2107 73.1152 42.4517 74.6709 45.0074C74.7066 45.0691 74.7574 45.1205 74.8185 45.1568C74.8796 45.193 74.9489 45.2128 75.0198 45.2142C75.0842 45.2136 75.1475 45.1973 75.2044 45.1668C75.2612 45.1362 75.3098 45.0922 75.3461 45.0386C78.4828 42.6416 81.5914 41.2107 83.6732 41.2107C88.5907 41.2107 91.5305 44.9196 91.5305 51.1274C91.5305 52.9124 91.5136 55.1762 91.4967 57.2871C91.4827 59.1401 91.4686 60.8769 91.4686 62.0782C91.4686 62.3616 91.8568 63.1776 92.4391 63.3391C93.1593 63.6932 94.1974 63.8746 95.5112 64.1012H95.5618C95.6603 64.4582 95.4521 65.8437 95.2524 66.1271C94.926 66.1271 94.4759 66.0987 93.9133 66.0704C92.8921 66.0194 91.4911 65.9486 89.8622 65.9486C86.5933 65.9486 84.8857 66.0109 83.254 66.1186C83.1303 65.7077 83.0881 64.3817 83.2372 64.1041C83.9128 63.9977 84.5817 63.851 85.2402 63.6649C86.281 63.3192 86.5821 62.8432 86.6468 61.4521C86.6721 60.4632 86.8606 51.7507 86.5258 49.6824C86.2163 47.5376 84.6128 45.0272 81.1047 45.0272C79.8022 45.0272 77.7008 45.5741 75.6978 47.1041C75.5735 47.2459 75.5037 47.4278 75.5008 47.6169V47.6594C75.7372 48.7757 75.7371 50.0791 75.7371 52.0482C75.7371 53.1816 75.7372 54.3631 75.7231 55.5446C75.709 57.9472 75.6978 60.2139 75.7371 61.9281C75.7371 63.0954 76.4376 63.3759 77.0031 63.5997C77.3097 63.6677 77.5517 63.7272 77.7964 63.7839C78.2662 63.9001 78.7557 64.0191 79.4843 64.1352C79.5922 64.633 79.5826 65.1493 79.4562 65.6426C79.4264 65.8277 79.3542 66.0033 79.2452 66.1554C77.4279 66.0931 75.5627 66.0392 72.8705 66.0392C72.0547 66.0392 70.724 66.0732 69.5481 66.1044C68.5944 66.1299 67.6942 66.1554 67.1822 66.1582C67.0437 65.8292 66.9821 65.4724 67.0021 65.1156C66.9734 64.7793 67.0387 64.4417 67.1906 64.1409L67.9136 64.0077C68.5438 63.8944 69.0895 63.7981 69.6016 63.6677C70.4905 63.3844 70.8253 62.8971 70.89 61.7552C71.0644 59.0919 71.1994 51.4164 70.8253 49.4954C70.1895 46.4127 68.4481 44.8487 65.6462 44.8487C64.0061 44.8487 61.9328 45.6449 60.2392 46.9227C60.0763 47.0825 59.948 47.2745 59.8623 47.4866C59.7766 47.6987 59.7354 47.9263 59.7413 48.1552C59.7413 49.0704 59.7413 50.1584 59.7413 51.3257C59.7413 55.1791 59.7159 59.9759 59.8088 62.0499C59.865 62.6902 60.0901 63.4496 61.2801 63.7272C61.5417 63.8037 61.9918 63.8774 62.5151 63.9652C62.8161 64.0162 63.1452 64.0701 63.4856 64.1324C63.5939 64.8109 63.5389 65.5056 63.3253 66.1582C62.802 66.1582 62.1578 66.1242 61.4207 66.0931C60.2955 66.0421 58.8889 65.9797 57.2994 65.9797C55.4202 65.9797 54.112 66.0421 53.0627 66.0931C52.3566 66.1271 51.7461 66.1554 51.1357 66.1582" fill="white"/>
<path d="M111.459 43.7719C110.444 43.7506 109.445 44.0337 108.59 44.585C106.502 45.8629 105.439 48.4157 105.439 52.167C105.439 59.188 108.93 64.0925 113.929 64.0925C115.27 64.1353 116.577 63.6691 117.592 62.7864C119.128 61.5255 119.944 58.9472 119.944 55.3375C119.944 48.4214 116.532 43.7719 111.454 43.7719M112.416 66.6964C103.385 66.6964 100.17 60.0239 100.17 53.782C100.17 49.4215 101.939 46.013 105.431 43.6472C107.876 42.1226 110.683 41.2869 113.558 41.2275C120.448 41.2275 125.261 46.217 125.261 53.3655C125.261 58.2219 123.339 62.0582 119.702 64.4552C117.955 65.5319 114.92 66.6964 112.416 66.6964Z" fill="white"/>
<path d="M203.395 43.7719C202.377 43.7486 201.376 44.0318 200.52 44.585C198.432 45.8629 197.369 48.4157 197.369 52.167C197.369 59.188 200.86 64.0925 205.859 64.0925C207.203 64.1382 208.515 63.6718 209.533 62.7864C211.069 61.5255 211.882 58.9472 211.882 55.3375C211.882 48.4214 208.472 43.7719 203.395 43.7719ZM204.357 66.6964C195.326 66.6964 192.111 60.0239 192.111 53.7849C192.111 49.4187 193.88 46.013 197.374 43.6472C199.818 42.1216 202.624 41.2859 205.499 41.2275C212.388 41.2275 217.202 46.2199 217.202 53.3627C217.202 58.2247 215.28 62.0582 211.643 64.4524C209.896 65.5319 206.86 66.6964 204.357 66.6964Z" fill="white"/>
<path d="M172.989 43.5341C170.207 43.5341 168.407 45.7469 168.407 49.1724C168.407 52.5979 169.957 56.6694 174.314 56.6694C175.063 56.6694 176.419 56.3351 177.091 55.5899C178.104 54.6521 178.779 52.7141 178.779 50.6684C178.779 46.2002 176.618 43.5341 173.004 43.5341M172.643 67.1754C171.857 67.1668 171.082 67.3619 170.393 67.7421C168.19 69.1587 167.169 70.5754 167.169 72.2216C167.169 73.7629 167.763 74.9897 169.04 76.0777C170.587 77.3981 172.674 78.0412 175.417 78.0412C180.816 78.0412 183.235 75.1172 183.235 72.2216C183.235 70.2042 182.231 68.8527 180.163 68.0877C178.571 67.5012 175.91 67.1782 172.652 67.1782M173.012 81.0616C169.771 81.0616 167.436 80.3731 165.442 78.8261C163.501 77.3187 162.628 75.0804 162.628 73.5334C162.649 72.5365 163.027 71.5807 163.692 70.8417C164.254 70.1957 165.563 68.9859 168.587 66.8921C168.634 66.872 168.674 66.8384 168.702 66.7956C168.73 66.7528 168.745 66.7026 168.744 66.6512C168.745 66.594 168.727 66.5381 168.692 66.4928C168.657 66.4475 168.608 66.4154 168.553 66.4019C166.063 65.4414 165.312 63.8519 165.084 63.0019C165.084 62.9707 165.084 62.9226 165.059 62.8687C164.989 62.5344 164.921 62.2171 165.374 61.8912C165.723 61.6419 166.28 61.3076 166.876 60.9534C167.718 60.484 168.526 59.9548 169.293 59.3696C169.334 59.3249 169.365 59.2714 169.382 59.2131C169.4 59.1547 169.404 59.0931 169.394 59.0329C169.384 58.9727 169.361 58.9156 169.326 58.8659C169.291 58.8163 169.245 58.7753 169.192 58.7462C165.506 57.4996 163.65 54.7427 163.65 50.5296C163.638 49.2158 163.942 47.9186 164.534 46.7482C165.127 45.5777 165.991 44.5685 167.054 43.8061C168.536 42.6246 172.258 41.2051 174.669 41.2051H174.81C177.288 41.2646 178.686 41.7887 180.622 42.5084C181.723 42.9094 182.889 43.0959 184.059 43.0581C186.11 43.0581 187.008 42.4036 187.778 41.6414C187.903 41.9847 187.97 42.3468 187.975 42.7124C188.022 43.5836 187.788 44.4466 187.306 45.1717C186.887 45.7582 185.899 46.1832 184.996 46.1832C184.903 46.1832 184.813 46.1832 184.715 46.1691C184.24 46.1354 183.769 46.0566 183.308 45.9339L183.078 46.0161C183.004 46.1237 183.052 46.2427 183.111 46.3957C183.126 46.4257 183.137 46.457 183.145 46.4892C183.31 47.2454 183.422 48.0123 183.48 48.7842C183.48 53.1901 181.755 55.1082 179.89 56.5306C178.087 57.8933 175.945 58.7286 173.701 58.9446C173.653 58.9446 173.42 58.9644 172.981 59.0041C172.7 59.0296 172.334 59.0636 172.281 59.0636H172.227C171.822 59.1769 170.764 59.6841 170.764 60.6276C170.764 61.4096 171.242 62.3814 173.53 62.5571L175.009 62.6619C178.025 62.8744 181.792 63.1379 183.564 63.7414C184.74 64.1578 185.755 64.9369 186.466 65.968C187.177 66.9991 187.546 68.2297 187.522 69.4846C187.522 73.4371 184.732 77.1544 180.059 79.4267C177.855 80.4868 175.443 81.0321 173.001 81.0219" fill="white"/>
<path d="M159.188 64.0503C157.866 63.8718 156.901 63.6904 155.762 63.1521C155.538 62.9189 155.391 62.6222 155.34 62.3021C155.219 60.4463 155.219 55.0601 155.219 51.5354C155.219 48.6596 154.74 46.1521 153.531 44.3529C152.088 42.3158 150.045 41.1201 147.401 41.1201C145.057 41.1201 141.932 42.7351 139.349 44.9508C139.288 45.0103 138.891 45.3899 138.899 44.8006C138.908 44.2113 138.998 43.0156 139.054 42.2506C139.079 42.0474 139.056 41.8411 138.988 41.6482C138.92 41.4553 138.807 41.2813 138.66 41.1399C136.972 41.9899 132.238 43.1233 130.485 43.2961C129.208 43.5454 128.884 44.7836 130.249 45.2115H130.268C131.361 45.5148 132.403 45.9767 133.363 46.5828C133.903 47.0021 133.844 47.5999 133.844 48.0788C133.903 52.0879 133.903 58.2533 133.723 61.6051C133.664 62.9226 133.301 63.4014 132.339 63.6423L132.429 63.6111C131.696 63.796 130.953 63.9361 130.204 64.0305C129.903 64.328 129.903 66.0648 130.204 66.4246C130.806 66.4246 133.861 66.2461 136.393 66.2461C139.875 66.2461 141.679 66.4246 142.582 66.4246C142.945 66.0053 143.063 64.3903 142.824 64.0305C141.992 63.9925 141.165 63.872 140.357 63.6706C139.397 63.4326 139.155 62.9509 139.096 61.8771C138.978 59.0608 138.978 53.0768 138.978 49.0053C138.978 47.872 139.276 47.3308 139.636 47.022C140.838 45.9453 142.824 45.2285 144.565 45.2285C146.253 45.2285 147.378 45.7668 148.222 46.4836C149.205 47.3475 149.822 48.5585 149.944 49.8666C150.183 52.1333 150.121 56.6921 150.121 60.6333C150.121 62.7894 149.944 63.3306 149.162 63.5686C148.802 63.7471 147.84 63.9284 146.698 64.0474C146.337 64.4073 146.456 66.0818 146.698 66.4416C148.259 66.4416 150.073 66.2631 152.707 66.2631C156.012 66.2631 158.116 66.4416 158.957 66.4416C159.318 66.0223 159.439 64.4583 159.199 64.0474" fill="white"/>
</svg>
